<?xml version="1.0" encoding="utf-8"?>
<!-- Generator: Adobe Illustrator 27.5.0, SVG Export Plug-In . SVG Version: 6.00 Build 0)  -->
<svg version="1.1" xmlns="http://www.w3.org/2000/svg" xmlns:xlink="http://www.w3.org/1999/xlink" x="0px" y="0px"
	 viewBox="0 0 500 500" style="enable-background:new 0 0 500 500;" xml:space="preserve">
<g id="BACKGROUND">
	<rect style="fill:#FFFFFF;" width="500" height="500"/>
</g>
<g id="OBJECTS">
	<g>
		<ellipse style="fill:#FAC7B2;" cx="250" cy="420.715" rx="203.928" ry="13.522"/>
		
			<ellipse transform="matrix(0.7071 -0.7071 0.7071 0.7071 -8.8683 318.7363)" style="fill:#FAC7B2;" cx="380.315" cy="170.073" rx="78.766" ry="78.766"/>
		<circle style="fill:#FDDACA;" cx="200.704" cy="226.386" r="159.913"/>
		<g>
			<path style="fill:#2B92ED;" d="M230.017,305.265c0,0-46.017,15.735-34.017,56.235c13,38,57.5,54,108,54s134-6,138-104
				c1.5-73.5-50.519-134.857-102.01-133.679C302,179,231.535,251.03,230.017,305.265z"/>
			<path style="fill:#2380D1;" d="M237.012,306.501c0,0-40.034,13.689-29.594,48.922c11.31,33.059,50.023,46.978,93.956,46.978
				c43.933,0,116.575-5.22,120.055-90.476c1.305-63.943-43.95-117.321-88.745-116.296
				C299.634,196.655,238.332,259.319,237.012,306.501z"/>
			<path style="fill:#2B92ED;" d="M422.052,313.784c-13.455-1.501-26.309,4.055-34.543,13.949
				c4.011-14.764,17.326-25.297,32.923-25.474c0.644-0.007,0.645-1.007,0-1c-16.755,0.191-31.073,12.045-34.401,28.363
				c-2.624,3.577-4.678,7.641-5.991,12.091c-0.183,0.62,0.782,0.883,0.964,0.266c1.138-3.857,2.842-7.412,4.998-10.598
				c0.265,0.196,0.686,0.166,0.755-0.243c0.063-0.377,0.138-0.749,0.213-1.122c7.948-10.698,21.19-16.782,35.081-15.233
				C422.693,314.856,422.686,313.855,422.052,313.784z"/>
			<g>
				<path style="fill:#2B292A;" d="M259,119.25l9.5-1.417c0,0,11.5,6.417,20.5,22.167c9,14.75,14.5,28.607,29,39.929
					C332.5,191.25,363,233,310.125,250c-17.075,5.49-33.409,13.112-51.452,15.084c-18.763,2.051-40.203-5.764-38.975-28.361
					c0.418-7.693,4.475-14.881,8.552-21.223c3.25-6,1.5-30.75-15-42L259,119.25z"/>
				<path style="fill:#FFB09E;" d="M276.62,227.17l-6.14,32.28l-0.59,3.11l-1.75,9.18l-0.16,0.86l-14.5,76.28h-12.54
					c0,0,7.4-103.35,9.08-125.31c0.69-10.77,4.02-16.94,7.04-20.36c0.6-0.68,1.18-1.26,1.73-1.73c0.08-0.07,0.15-0.13,0.22-0.19
					c0.58-0.49,1.11-0.87,1.56-1.16c1.02-0.65,1.68-0.88,1.68-0.88l5.47,4.15L276.62,227.17z"/>
				<path style="fill:#F06363;" d="M269.89,262.56l-1.75,9.18c-3.24-0.37-6.39-1.56-9.03-3.46c-3.96-2.85-6.75-7.27-7.62-12.07
					c-0.69-3.86-0.17-7.82,0.46-11.69c1.19-7.17,3.02-14.43,5.07-21.41c-2.22-7.08-1.57-15.01,1.77-21.63
					c0.07-0.14,0.14-0.29,0.22-0.43v0.24C259.26,222.01,263.53,242.74,269.89,262.56z"/>
				<g>
					<g>
						<path style="fill:#FFB09E;" d="M369,310c0,0-29.25,47.5-88.75,25.75c0,0,3-46.5-1-57.5l-15.12-9.45
							c-7.73-4.83-11.76-13.94-9.97-22.88c0.03-0.14,0.06-0.28,0.09-0.42c0.89-3.82,1.89-9,2.87-14.52
							c2.62-14.69,5.13-31.73,5.13-31.73l-0.8-1.17l-2.46-3.58l-2.6-3.78l-5.14-7.47l13.37-5.76l3.2,4.5l7.52,10.58l5.24-1.41
							l7.75-1.53l26.92,17.87L369,310z"/>
						<path style="fill:#F06363;" d="M273.71,191.54c-4.08,2.15-8.18,4.36-12.26,6.54l-2.46-3.58c0.3-3.55,0.3-7.11-0.1-10.68
							c0.84-0.02,1.4-0.04,2.24-0.07c1.7,0.56,3.21,1.69,4.24,3.17c1.02,1.48,1.55,3.29,1.48,5.08c0.89-0.89,2.12-1.71,3.38-1.74
							C271.5,190.22,272.77,190.69,273.71,191.54z"/>
						<path style="fill:#F06363;" d="M278.958,227.921l-4.669-12.947c0,0,7.384-11.741,20.548-15.982h-7.706l-11.191,4.695
							l-10.305,7.638v4.21L278.958,227.921z"/>
						<path style="fill:#F06363;" d="M267.82,181.99c-1.94,2.75-4.58,5.19-8.08,7.13c-1.09,0.6-2.21,1.14-3.35,1.6l-5.14-7.47
							l13.37-5.76L267.82,181.99z"/>
						<path style="fill:#4DABFF;" d="M369,310c0,0-29.25,47.5-88.75,25.75c0,0,3-46.5-1-57.5l-15.12-9.45
							c-7.73-4.83-11.76-13.94-9.97-22.88c0.03-0.14,0.06-0.28,0.09-0.42c0.89-3.82,1.89-9,2.87-14.52
							c9.75,3.88,22.63-3.48,22.63-3.48c-4.67-16.03-1.68-29.29,0.83-36.34l7.75-1.53l22.48,14.92l4.44,2.95l7.55,14.39L369,310z"/>
						<path style="fill:#2B92ED;" d="M317.15,288.74c-1.06,3.28-2.25,6.55-4.16,9.41c-1.92,2.86-4.65,5.29-7.96,6.24
							c5.64-16.8,6.59-34.81,6.37-52.54c-0.19-15.77-1.26-31.56-0.59-47.3l4.44,2.95l7.55,14.39
							C326,244.21,324.08,267.27,317.15,288.74z"/>
					</g>
					<g>
						<path style="fill:#2B292A;" d="M222.948,179.929c-7.047-3.391-11.992-10.783-12.436-18.591
							c-0.443-7.808,3.633-15.713,10.252-19.879C222.824,154.171,223.819,167.08,222.948,179.929z"/>
						<path style="fill:#FFB09E;" d="M265.727,149.661c0.448-3.198,1.827-6.423,4.449-8.309c2.622-1.886,6.628-2.011,8.888,0.296
							c2.192,2.237,2.136,5.88,1.139,8.849c-1.911,5.692-6.879,10.255-12.713,11.677
							C267.532,157.955,265.142,153.839,265.727,149.661z"/>
						<path style="fill:#F06363;" d="M268.013,152.776c0.899-3.307,3.444-5.879,6.739-6.817c0.622-0.177,0.885,0.788,0.266,0.964
							c-1.125,0.32-2.148,0.852-3.03,1.548c1.427,0.663,2.381,2.092,2.422,3.702c0.016,0.645-0.984,0.644-1,0
							c-0.034-1.374-0.953-2.549-2.257-2.948c-1.019,1.046-1.776,2.347-2.175,3.816
							C268.809,153.663,267.844,153.399,268.013,152.776z"/>
						<path style="fill:#FFB09E;" d="M264,133.333c0,0,18.931,38.656-5.975,52.492c-7.101,3.945-15.571,4.914-23.316,2.464
							c-6.353-2.009-13.523-6.633-17.02-17.065c-1.771-5.284-2.043-10.942-1.169-16.447c1.3-8.186,3.98-17.611,3.98-17.611l6-8.833
							l23.517-3.167L264,133.333z"/>
						<path style="fill:#F06363;" d="M230.829,170.816c-0.063,0.385-0.13,0.789,0.002,1.156c0.294,0.819,1.482,0.995,2.208,0.516
							c0.726-0.48,1.065-1.366,1.251-2.216c0.501-2.285,0.212-4.694-0.536-6.911c-0.748-2.216-1.939-4.258-3.255-6.192
							C231.451,161.645,231.563,166.299,230.829,170.816z"/>
						<ellipse style="fill:#FF61B0;" cx="251.25" cy="170.014" rx="4.488" ry="2.927"/>
						<path style="fill:#FF61B0;" d="M227.751,172.942c0,1.617-2.009,2.927-4.487,2.927c-2.479,0-4.488-1.311-4.488-2.927
							c0-1.617,2.009-2.927,4.488-2.927C225.742,170.014,227.751,171.325,227.751,172.942z"/>
						<path style="fill:#2B292A;" d="M270.269,153.843c0.075,2.027-0.384,3.559-2.412,3.617c-2.028,0.058-3.914-1.191-5.143-2.805
							c-1.229-1.614-1.913-3.566-2.576-5.483c-0.663-1.917-1.343-3.87-2.564-5.49c-2.778-3.682-7.683-4.886-12.19-5.868
							c-4.507-0.982-9.413-2.241-12.122-5.973c0.669,2.361-0.553,4.744-2.064,6.495c-1.678,1.944-2.97,2.344-5.293,3.165
							c-4.369,1.545-8.158,4.748-10.328,8.851c-5.597,10.581-0.263,21.364,7.065,29.973c-6.366-2.289-12.214-5.553-16.073-11.108
							c-3.859-5.556-5.939-12.328-5.862-19.092c0.102-8.967,4.109-17.872,10.924-23.701c6.815-5.829,16.357-8.408,25.132-6.557
							c3.823-3.874,9.145-6.668,14.577-7.01c5.432-0.342,11.296,1.838,17.161,4.976L270.269,153.843z"/>
						<g>
							<path style="fill:#2B292A;" d="M244.901,157.176c0.273,2.635-0.461,4.87-1.64,4.993s-2.356-1.915-2.629-4.55
								c-0.273-2.635,0.461-4.87,1.64-4.993C243.451,152.503,244.628,154.54,244.901,157.176z"/>
							<path style="fill:#2B292A;" d="M225.398,159.18c0.273,2.635-0.461,4.87-1.64,4.993c-1.179,0.122-2.356-1.915-2.629-4.55
								c-0.273-2.635,0.461-4.87,1.64-4.992C223.948,154.508,225.125,156.545,225.398,159.18z"/>
						</g>
						<g>
							<g>
								
									<circle style="fill:none;stroke:#2380D1;stroke-linecap:round;stroke-linejoin:round;stroke-miterlimit:10;" cx="243.463" cy="157.397" r="10.755"/>
								
									<circle style="fill:none;stroke:#2380D1;stroke-linecap:round;stroke-linejoin:round;stroke-miterlimit:10;" cx="219.262" cy="157.397" r="10.755"/>
								
									<line style="fill:none;stroke:#231F20;stroke-linecap:round;stroke-linejoin:round;stroke-miterlimit:10;" x1="230.017" y1="157.397" x2="232.708" y2="157.397"/>
							</g>
							
								<line style="fill:none;stroke:#2380D1;stroke-linecap:round;stroke-linejoin:round;stroke-miterlimit:10;" x1="253.483" y1="153.505" x2="268.228" y2="143.488"/>
						</g>
						<path style="fill:#2B292A;" d="M245.179,145.416c-2.79-0.717-5.804-0.531-8.485,0.522c1.047-1.32,2.362-2.313,4.042-2.438
							C242.416,143.375,243.948,144.265,245.179,145.416z"/>
						<path style="fill:#2B292A;" d="M226.07,145.786c-2.743-0.878-5.763-0.869-8.501,0.026c1.122-1.257,2.493-2.171,4.178-2.197
							C223.431,143.588,224.908,144.565,226.07,145.786z"/>
						<path style="fill:#FFFFFF;" d="M233.299,178.288c0,0,5.843,0.466,8.962-4.923c0,0,2.019,7.448-1.326,8.71
							S233.299,178.288,233.299,178.288z"/>
					</g>
					<g>
						<path style="fill:#FFB09E;" d="M266.869,195.878c0,0,16.599-17.473,26.631-14.44c0,0-13.644,9.318-19.661,16.731
							L266.869,195.878z"/>
						<path style="fill:#FFB09E;" d="M271.682,195.452c0,0,18.023-16,27.762-12.125c0,0-14.387,8.125-21.012,15L271.682,195.452z"/>
						<path style="fill:#FFB09E;" d="M311.26,300.35l-16.29-37.73l-1.07-20.97c0,0-11.73-20.06-11.78-36.69
							c-0.02-5.31,1.16-10.27,4.29-14.11c1.48-1.75,6.08-2.85,11.36-1.63c7.97,1.85,17.51,8.99,20.32,27.17
							C320.08,245.01,322.92,286.65,311.26,300.35z"/>
						<path style="fill:#F06363;" d="M295.45,198.2l1.74,1.34l-2.16,0.43c-4.31,0.86-7.11,1.84-10.33,3.6l-2.58,1.39
							c-0.02-5.31,1.16-10.27,4.29-14.11c1.48-1.75,6.08-2.85,11.36-1.63c-2.8,1.71-6.79,4.26-10.48,7
							c0.58-0.07,1.16-0.12,1.73-0.12C291.48,196.1,293.64,196.81,295.45,198.2z"/>
						<path style="fill:#FFB09E;" d="M314.181,287.216l-43.905-73.911l13.942-10.61l-12.515-11.47l-6.688,3.676
							c0,0,1.558-12.528-7.076-11.1c0,0,4.061,9.866,1.561,15.866s-5.268,13.315,2.866,32.408
							c8.301,19.092,19.538,53.426,19.538,53.426s8.195,24.864,23.668,18.817c2.186-0.854,4.138-2.26,5.754-4.005
							c0.044-3.645,1.707-5.52,2.508-8.145L314.181,287.216z"/>
						<path style="fill:#FFB09E;" d="M273.25,198.25c0,0,18.023-16,27.762-12.125c0,0-14.387,8.125-21.012,15L273.25,198.25z"/>
					</g>
				</g>
				<g>
					<path style="fill:#FFCC00;" d="M298.486,369.811c0,0,35.079,19.54,68.509-1.648c13.791-8.518,33.872-41.497,21.26-68.833
						c-5.565-12.061-17.551-19.949-30.819-20.592c-0.955-0.046-1.507-0.037-1.507-0.037l-10.563,35.785L298.486,369.811z"/>
					<path style="fill:#FF9500;" d="M365.635,312.014c0,0-11.761,41.27-58.53,61.494l-9.335-9.738L365.635,312.014z"/>
					<path style="fill:#FF7B00;" d="M321.94,323.41l-29,29.72l-3.96,4.05l-53.49-35.64l-19.45-17.42l-5.56-17.36
						c4.25-4.8,10.95-6.43,18.99-5.92C263.56,282.97,321.94,323.41,321.94,323.41z"/>
					<path style="fill:#E36200;" d="M285.707,350.932c-2.472,0.382-4.859-0.946-6.957-2.307
						c-20.057-13.007-34.836-33.913-40.409-57.159c9.139,9.219,18.393,18.531,29.45,25.332c11.057,6.801,24.267,10.953,37.075,8.84
						c-4.146,6.466-8.291,12.932-12.437,19.398C290.769,347.628,288.749,350.463,285.707,350.932z"/>
					<path style="fill:#FFB09E;" d="M299.453,385.006c0,0,11.803,10.886,20.443,14.623c1.469,0.636,3.163,0.458,4.505-0.415
						c3.817-2.483,11.938-8.017,15.062-12.075c1.641-1.987,1.709-4.199-5.623-2.218c-5.094,1.071-16.191,3.93-24.793-8.755
						L299.453,385.006z"/>
					<path style="fill:#FF7B00;" d="M317.03,380.57l-12.41,13.35c0,0-14.83-6.79-33.01-16.11c-4.43-2.27-9.06-4.69-13.72-7.19
						c-7.32-3.94-14.72-8.09-21.56-12.21c-5.91-3.57-11.51-7.64-16.58-12.32c-36.81-33.93-9.27-59.33-9.27-59.33
						c4.25-4.8,10.95-6.43,18.99-5.92l53.78,61.26l9.69,11.03l0.42,0.48L317.03,380.57z"/>
					<path style="fill:#E36200;" d="M319.91,324.05l-16.31,18.16l-10.24,11.4l-21.75,24.2c-4.43-2.27-9.06-4.69-13.72-7.19
						l7.17-10.16l3.44,1.74c0,0,3.27-5.04,9.01-12.67c1.7-2.27,3.62-4.77,5.74-7.43c6.59-8.28,15.08-18.16,24.82-27.7
						c1.08-1.07,2.19-2.13,3.3-3.18l6.13,9.22L319.91,324.05z"/>
					<polygon style="fill:#FF7B00;" points="295.581,390.913 312.828,371.958 318.629,379.666 303.797,396.962 					"/>
					<path style="fill:#FFCC00;" d="M265.055,370.282l11.565,11.536c0,0,80.965-23.322,92.38-81.465l-13.07-21.652
						C329.798,282.467,298.609,325.459,265.055,370.282z"/>
					<path style="fill:#FFB09E;" d="M276.451,381.378c0,0-11.803,10.886-20.443,14.623c-1.469,0.635-3.163,0.458-4.505-0.415
						c-3.817-2.483-11.938-8.017-15.062-12.075c-1.641-1.987-1.709-4.199,5.623-2.218c5.094,1.071,16.191,3.93,24.793-8.754
						L276.451,381.378z"/>
					<polygon style="fill:#FF9500;" points="265.824,364.918 285.563,381.261 278.134,387.416 260.165,373.408 					"/>
				</g>
			</g>
			<path style="fill:#FFB09E;" d="M275.416,202.765c0,0,11.806-9.64,19.42-3.772c-4.346,0.867-7.29,1.88-10.618,3.702l-6.773,3.648
				L275.416,202.765z"/>
			<path style="fill:#F06363;" d="M265.786,196.033c-0.306-0.568-1.169-0.063-0.863,0.505c1.969,3.658,0.766,7.807-2.822,9.849
				c-0.56,0.319-0.057,1.183,0.505,0.863C266.678,204.933,267.997,200.143,265.786,196.033z"/>
			<path style="fill:#F06363;" d="M284.464,186.021c-4.35,1.954-8.105,4.798-11.188,8.433c-0.418,0.493,0.409,1.058,0.821,0.571
				c2.97-3.502,6.615-6.223,10.802-8.104C285.488,186.657,285.053,185.756,284.464,186.021z"/>
			<path style="fill:#F06363;" d="M287.329,188.125c-4.745,2.518-8.926,5.795-12.503,9.803c-0.428,0.479,0.277,1.189,0.707,0.707
				c3.52-3.944,7.63-7.168,12.301-9.647C288.404,188.686,287.899,187.823,287.329,188.125z"/>
			<path style="fill:#F06363;" d="M285.121,196.901c-2.893,0.549-5.467,1.903-7.576,3.956c-0.463,0.451,0.245,1.157,0.707,0.707
				c1.993-1.941,4.404-3.181,7.134-3.699C286.02,197.745,285.751,196.782,285.121,196.901z"/>
		</g>
		<g>
			<polygon style="fill:#FF61B0;" points="190.233,366.698 190.233,427.516 183.427,427.516 176.961,366.698 			"/>
			<polygon style="fill:#D93F8C;" points="273.505,347.618 273.505,408.436 266.699,408.436 260.233,347.618 			"/>
			<polygon style="fill:#D93F8C;" points="126.496,341.549 126.496,402.367 133.302,402.367 139.767,341.549 			"/>
			<polygon style="fill:#FF61B0;" points="58.777,357.007 58.777,417.825 65.582,417.825 72.048,357.007 			"/>
			<g>
				<polygon style="fill:#FF80BF;" points="52.517,343.279 180.88,360.459 276.451,335.495 140.632,321.232 				"/>
				<polygon style="fill:#D93F8C;" points="180.88,360.459 180.88,374.073 276.62,347.169 276.451,335.495 				"/>
				<polygon style="fill:#FF61B0;" points="180.88,374.073 180.88,360.459 52.517,343.279 52.517,357.18 				"/>
			</g>
		</g>
		<g>
			<g>
				<path style="fill:#FF9500;" d="M431.151,364.393c-15.156-13.59-26.118-31.793-31.042-51.545
					c-4.923-19.752-3.787-40.971,3.218-60.084C427.937,284.584,439.081,324.955,431.151,364.393z"/>
				<path style="fill:#FFFFFF;" d="M429.764,368.421c-7.665-32.753-15.33-65.505-22.995-98.258
					c-0.147-0.628-1.111-0.362-0.964,0.266c7.665,32.753,15.33,65.505,22.995,98.258
					C428.946,369.314,429.911,369.048,429.764,368.421z"/>
				<path style="fill:#FFCC00;" d="M430.048,364.918c-11.892-49.226-2.223-103.265,26.002-145.312
					C458.657,269.691,450.202,318.992,430.048,364.918z"/>
				<path style="fill:#FFFFFF;" d="M446.955,248.305l-20.638,127.152c-0.102,0.631,0.861,0.901,0.964,0.266l20.638-127.152
					C448.021,247.94,447.058,247.669,446.955,248.305z"/>
			</g>
			<polygon style="fill:#FF61B0;" points="442.454,419 416.18,419 403.787,357.18 454.847,357.18 			"/>
		</g>
		<g>
			<polygon style="fill:#696969;" points="185.218,348.718 185.218,354.784 238.193,341.09 238.193,334.914 			"/>
			<polygon style="fill:#4D4D4D;" points="238.193,334.914 159.954,326.841 185.218,348.718 			"/>
			<polygon style="fill:#2B292A;" points="75.27,268.871 178.386,273.156 185.218,348.718 84.021,336.763 			"/>
			<polygon style="fill:#4D4D4D;" points="84.021,336.763 185.218,348.718 185.218,354.784 84.021,342.17 			"/>
			<path style="fill:#FF80BF;" d="M142.776,301.975c-1.514-3.26-4.923-5.674-8.517-5.6c-2.657,0.055-5.236,1.619-6.567,3.873
				c-1.33-2.254-3.91-3.818-6.567-3.873c-3.594-0.074-7.003,2.339-8.517,5.6c-1.514,3.261-1.254,7.189,0.282,10.439
				c1.536,3.25,4.246,5.853,7.34,7.683c2.322,1.373,4.858,2.337,7.462,3.063c2.604-0.726,5.14-1.69,7.462-3.063
				c3.094-1.83,5.805-4.432,7.34-7.683C144.03,309.164,144.29,305.236,142.776,301.975z"/>
		</g>
		<g>
			<g>
				<rect x="45" y="117.833" style="fill:#FFCC00;" width="57.477" height="41.646"/>
				<rect x="102.477" y="117.833" style="fill:#FF61B0;" width="57.477" height="41.646"/>
				<rect x="45" y="159.479" style="fill:#4DABFF;" width="57.477" height="41.646"/>
				<rect x="102.477" y="159.479" style="fill:#2B292A;" width="57.477" height="41.646"/>
			</g>
			<g>
				<g>
					<g>
						<path style="fill:none;stroke:#FFFFFF;stroke-linecap:round;stroke-linejoin:round;" d="M164.702,202.686
							c0.455,0.209,0.906,0.425,1.354,0.648"/>
						<path style="fill:none;stroke:#FFFFFF;stroke-linecap:round;stroke-linejoin:round;stroke-dasharray:2.9171,2.9171;" d="
							M168.63,204.706c12.247,6.98,21.608,18.953,25.266,32.583c3.785,14.104,1.396,29.73-6.317,42.115"/>
						<path style="fill:none;stroke:#FFFFFF;stroke-linecap:round;stroke-linejoin:round;" d="M186.797,280.62
							c-0.276,0.417-0.559,0.83-0.848,1.238"/>
					</g>
				</g>
				<circle style="fill:#FFFFFF;" cx="161.545" cy="201.818" r="4.72"/>
				<path style="fill:#FFFFFF;" d="M187.345,283.419c0,2.607-2.113,4.719-4.72,4.719c-2.606,0-4.719-2.113-4.719-4.719
					c0-2.607,2.113-4.72,4.719-4.72C185.232,278.7,187.345,280.813,187.345,283.419z"/>
			</g>
			<g>
				<path style="fill:#4DABFF;" d="M127.386,120.258l2.986,4.108h0.843h0.843l2.986-4.108
					C133.604,117.638,128.826,117.638,127.386,120.258z"/>
				<path style="fill:#2B292A;" d="M133.18,124.367c0,1.085-0.88,1.965-1.965,1.965s-1.965-0.88-1.965-1.965
					c0-1.085,0.88-1.965,1.965-1.965S133.18,123.281,133.18,124.367z"/>
				<path style="fill:#2B292A;" d="M145.638,159.479v-3.867c0-5.749-4.661-10.41-10.409-10.41h-8.026
					c-5.749,0-10.41,4.66-10.41,10.41v3.867H145.638z"/>
				<path style="fill:#F06363;" d="M131.215,148.647L131.215,148.647c-1.129,0-2.045-0.915-2.045-2.045v-8.673h4.09v8.673
					C133.26,147.732,132.345,148.647,131.215,148.647z"/>
				<g>
					<path style="fill:#4DABFF;" d="M140.69,133.224c0,0.523-0.041,1.04-0.122,1.537c-0.734,4.508-4.644,7.942-9.356,7.942
						c-3.298,0-6.194-1.679-7.887-4.229c-1-1.503-1.584-3.311-1.584-5.249c0-5.229,4.236-9.472,9.472-9.472
						S140.69,127.995,140.69,133.224z"/>
					<g>
						<path style="fill:#FFB09E;" d="M124.062,135.044c-0.424-0.624-0.868-1.267-1.511-1.662c-0.643-0.395-1.546-0.472-2.114,0.025
							c-0.331,0.29-0.502,0.736-0.508,1.175c-0.006,0.439,0.141,0.871,0.361,1.251c0.413,0.711,1.097,1.26,1.88,1.511
							c0.783,0.251,1.658,0.201,2.408-0.137L124.062,135.044z"/>
						<path style="fill:#FFB09E;" d="M138.369,135.044c0.424-0.624,0.868-1.267,1.511-1.662c0.643-0.395,1.546-0.472,2.114,0.025
							c0.331,0.29,0.502,0.736,0.508,1.175c0.006,0.439-0.141,0.871-0.361,1.251c-0.413,0.711-1.097,1.26-1.88,1.511
							c-0.783,0.251-1.658,0.201-2.408-0.137L138.369,135.044z"/>
					</g>
					
						<ellipse transform="matrix(0.1274 -0.9919 0.9919 0.1274 -19.6014 248.1295)" style="fill:#FFB09E;" cx="131.212" cy="135.204" rx="8.463" ry="8.463"/>
					<path style="fill:#4DABFF;" d="M140.69,133.224c0,0.523-0.041,1.04-0.122,1.537c-0.292,0.027-0.592,0.041-0.891,0.041
						c-3.4,0-6.364-1.795-8.037-4.474c-0.578,4.284-4.005,7.663-8.316,8.146c-1-1.503-1.584-3.311-1.584-5.249
						c0-5.229,4.236-9.472,9.472-9.472S140.69,127.995,140.69,133.224z"/>
				</g>
			</g>
			<g>
				<path style="fill:#FF61B0;" d="M88.161,201.125v-3.867c0-5.749-4.66-10.41-10.409-10.41h-8.026
					c-5.749,0-10.41,4.661-10.41,10.41v3.867H88.161z"/>
				<path style="fill:#2B292A;" d="M68.649,186.728c3.634-1.148,8.028-1.005,12.988-0.456c-1.237-2.413-1.415-4.68-2.651-7.094
					c-4.249,0.15-8.907,0.093-13.156,0.243C66.77,181.912,67.709,184.237,68.649,186.728z"/>
				<path style="fill:#F06363;" d="M74.503,190.561L74.503,190.561c-1.129,0-2.045-0.915-2.045-2.045v-8.673h4.09v8.673
					C76.548,189.645,75.633,190.561,74.503,190.561z"/>
				<path style="fill:#2B292A;" d="M82.142,176.218h-5.544c-0.262,5.139,0.162,13.014,10.127,8.923
					C84.044,183.691,82.705,180.178,82.142,176.218z"/>
				<circle style="fill:#FFB09E;" cx="74.5" cy="177.118" r="8.463"/>
				<path style="fill:#2B292A;" d="M67.405,177.134c5.551,1.33,13.471,0.587,16.487-2.595c0,0-1.996-8.022-11.005-7.852
					c-6.714,0-10.454,5.1-10.794,9.944c-0.34,4.845-1.02,15.021,10.029,10.485C69.203,185.537,67.872,181.516,67.405,177.134z"/>
			</g>
			<g>
				<path style="fill:#2B292A;" d="M84.649,129.677c-0.367-0.295-0.953-0.449-1.411-0.339c0.273-0.713,0.173-1.558-0.26-2.187
					c-0.433-0.629-1.188-1.095-1.951-1.095c0.299-1.078-0.164-2.323-1.095-2.943c-0.931-0.62-2.206-0.441-3.086,0.25
					c-0.014-0.679-0.406-1.338-0.996-1.674c-0.59-0.336-1.357-0.336-1.948-0.001c-0.591,0.335-0.934,1.04-0.949,1.718
					c-0.178-0.976-1.197-1.719-2.181-1.59c-0.984,0.129-1.784,1.171-1.704,2.16c-0.227-0.75-0.956-1.318-1.738-1.356
					c-0.782-0.038-1.563,0.458-1.86,1.182c-0.298,0.724-0.112,1.618,0.471,2.142c-0.619-0.334-1.412-0.319-2.017,0.039
					c-0.606,0.357-1.002,1.044-1.009,1.747c-0.007,0.703,0.543,1.395,1.141,1.764c-0.91-0.175-1.907,0.276-2.377,1.075
					c-0.47,0.799-0.379,1.889,0.216,2.6c0.566,0.676,1.55,0.956,2.393,0.705c0.115,1.691,0.673,3.265,1.56,4.598
					c1.693,2.55,4.59,4.229,7.887,4.229c4.712,0,8.622-3.434,9.356-7.942c0.032-0.195,0.053-0.396,0.072-0.596
					c0.962-0.048,1.886-0.675,2.248-1.573C85.813,131.594,85.488,130.351,84.649,129.677z"/>
				<g>
					<path style="fill:#4DABFF;" d="M88.161,159.479v-3.867c0-5.749-4.66-10.41-10.41-10.41h-8.026c-5.749,0-10.41,4.66-10.41,10.41
						v3.867H88.161z"/>
					<path style="fill:#F06363;" d="M73.738,148.647L73.738,148.647c-1.129,0-2.045-0.915-2.045-2.045v-8.673h4.09v8.673
						C75.783,147.732,74.868,148.647,73.738,148.647z"/>
					<g>
						<g>
							<path style="fill:#FFB09E;" d="M66.585,135.044c-0.424-0.624-0.868-1.267-1.511-1.662c-0.643-0.395-1.546-0.472-2.114,0.025
								c-0.331,0.29-0.501,0.736-0.508,1.175c-0.006,0.439,0.14,0.871,0.361,1.251c0.413,0.711,1.097,1.26,1.88,1.511
								c0.783,0.251,1.658,0.201,2.408-0.137L66.585,135.044z"/>
							<path style="fill:#FFB09E;" d="M80.892,135.044c0.424-0.624,0.868-1.267,1.511-1.662c0.643-0.395,1.546-0.472,2.114,0.025
								c0.331,0.29,0.501,0.736,0.508,1.175c0.006,0.439-0.141,0.871-0.362,1.251c-0.413,0.711-1.097,1.26-1.88,1.511
								c-0.783,0.251-1.658,0.201-2.408-0.137L80.892,135.044z"/>
						</g>
						
							<ellipse transform="matrix(0.1602 -0.9871 0.9871 0.1602 -71.5343 186.33)" style="fill:#FFB09E;" cx="73.735" cy="135.204" rx="8.463" ry="8.463"/>
					</g>
				</g>
				<path style="fill:#2B292A;" d="M63.798,132.114c-0.089,0.619,0.117,1.291,0.591,1.697c0.475,0.407,1.221,0.495,1.74,0.147
					c0.52-0.348,0.711-1.134,0.352-1.646c0.397-0.002,0.765-0.301,0.975-0.639c0.21-0.338,0.232-0.783,0.058-1.14
					c0.357,0.592,1.22,0.835,1.86,0.574c0.64-0.261,1.031-1.021,0.871-1.694c0.367,0.803,1.386,1.245,2.265,1.156
					c0.879-0.089,1.664-0.78,1.863-1.641c-0.172,0.84,0.424,1.647,1.232,1.933c0.808,0.285,1.798-0.106,2.191-0.868
					c-0.201,0.695,0.109,1.415,0.672,1.869c0.563,0.454,1.403,0.53,2.039,0.185c-0.091,0.506-0.111,0.96-0.047,1.47
					c0.064,0.51,0.3,1.023,0.731,1.304c0.431,0.281,1.071,0.262,1.409-0.126c0.165-3.128-1.012-6.285-3.454-8.246
					c-2.442-1.961-5.948-2.565-8.853-1.393c-1.832,0.739-3.354,2.106-4.594,3.644C64.883,129.71,63.982,130.83,63.798,132.114z"/>
			</g>
			<g>
				<g>
					<path style="fill:#4DABFF;" d="M135.228,186.848h-8.026c-5.749,0-10.41,4.66-10.41,10.41v3.867h28.845v-3.867
						C145.638,191.509,140.977,186.848,135.228,186.848z"/>
					<path style="fill:#F06363;" d="M131.215,190.293L131.215,190.293c-1.129,0-2.045-0.915-2.045-2.045v-8.673h4.09v8.673
						C133.26,189.378,132.345,190.293,131.215,190.293z"/>
					<g>
						<g>
							<path style="fill:#FFB09E;" d="M138.369,176.69c0.424-0.624,0.868-1.267,1.511-1.662c0.643-0.395,1.546-0.472,2.114,0.025
								c0.331,0.29,0.502,0.736,0.508,1.175c0.006,0.439-0.141,0.871-0.361,1.251c-0.413,0.711-1.097,1.26-1.88,1.511
								c-0.783,0.251-1.658,0.201-2.408-0.137L138.369,176.69z"/>
						</g>
					</g>
				</g>
				<path style="fill:#FF61B0;" d="M122.448,171.592c-2.265,5.618-1.675,13.1,1.389,18.339c1.103,1.885,2.573,3.652,4.558,4.563
					c1.356-2.957,1.922-6.157,1.581-9.392c-0.34-3.235-1.565-6.373-3.506-8.984C125.32,174.572,124.024,172.7,122.448,171.592z"/>
				<path style="fill:#FFB09E;" d="M124.062,176.69c-0.424-0.624-0.868-1.267-1.511-1.662c-0.643-0.395-1.546-0.472-2.114,0.025
					c-0.331,0.29-0.502,0.736-0.508,1.175c-0.006,0.439,0.141,0.871,0.361,1.251c0.413,0.711,1.097,1.26,1.88,1.511
					c0.783,0.251,1.658,0.201,2.408-0.137L124.062,176.69z"/>
				<circle style="fill:#FFB09E;" cx="131.212" cy="176.85" r="8.463"/>
				<path style="fill:#FF61B0;" d="M140.688,174.873c0,0.449-0.027,0.898-0.088,1.326c-4.168-0.027-7.928-1.754-10.621-4.521
					c-1.639,3.053-4.304,5.473-7.534,6.793c-0.455-1.108-0.707-2.325-0.707-3.597c0-5.229,4.236-9.472,9.472-9.472
					S140.688,169.645,140.688,174.873z"/>
				<path style="fill:#FF61B0;" d="M128.906,195.024l3.176,2.203c0,0-0.353,2.067-2.672,2.067l-0.87-4.314L128.906,195.024z"/>
				<path style="fill:#2B292A;" d="M129.41,194.98c0,0.48-0.389,0.87-0.87,0.87c-0.48,0-0.87-0.389-0.87-0.87
					c0-0.48,0.389-0.87,0.87-0.87C129.021,194.111,129.41,194.5,129.41,194.98z"/>
			</g>
		</g>
		<g>
			<circle style="fill:#FFFFFF;" cx="364.056" cy="129.575" r="5.619"/>
			<circle style="fill:#FFFFFF;" cx="389.469" cy="129.575" r="5.619"/>
			<path style="fill:#FFFFFF;" d="M420.501,129.575c0,3.104-2.516,5.619-5.619,5.619c-3.103,0-5.619-2.516-5.619-5.619
				c0-3.104,2.516-5.619,5.619-5.619C417.985,123.956,420.501,126.471,420.501,129.575z"/>
			<circle style="fill:#FFFFFF;" cx="364.056" cy="148.207" r="5.619"/>
			<circle style="fill:#FFFFFF;" cx="389.469" cy="148.207" r="5.619"/>
			<path style="fill:#FFFFFF;" d="M420.501,148.207c0,3.104-2.516,5.619-5.619,5.619c-3.103,0-5.619-2.516-5.619-5.619
				s2.516-5.619,5.619-5.619C417.985,142.588,420.501,145.104,420.501,148.207z"/>
		</g>
		<g>
			<path style="fill:#FFFFFF;" d="M55.262,227.145c0,2.632-2.134,4.766-4.766,4.766c-2.632,0-4.766-2.134-4.766-4.766
				c0-2.632,2.134-4.766,4.766-4.766C53.128,222.38,55.262,224.513,55.262,227.145z"/>
			<path style="fill:#FFFFFF;" d="M76.814,227.145c0,2.632-2.134,4.766-4.766,4.766c-2.632,0-4.766-2.134-4.766-4.766
				c0-2.632,2.134-4.766,4.766-4.766C74.68,222.38,76.814,224.513,76.814,227.145z"/>
			<path style="fill:#FFFFFF;" d="M98.366,227.145c0,2.632-2.134,4.766-4.766,4.766c-2.632,0-4.766-2.134-4.766-4.766
				c0-2.632,2.134-4.766,4.766-4.766C96.233,222.38,98.366,224.513,98.366,227.145z"/>
			<circle style="fill:#FFFFFF;" cx="50.496" cy="242.947" r="4.766"/>
			<path style="fill:#FFFFFF;" d="M76.814,242.947c0,2.632-2.134,4.766-4.766,4.766c-2.632,0-4.766-2.134-4.766-4.766
				c0-2.632,2.134-4.766,4.766-4.766C74.68,238.182,76.814,240.316,76.814,242.947z"/>
			<path style="fill:#FFFFFF;" d="M98.366,242.947c0,2.632-2.134,4.766-4.766,4.766c-2.632,0-4.766-2.134-4.766-4.766
				c0-2.632,2.134-4.766,4.766-4.766C96.233,238.182,98.366,240.316,98.366,242.947z"/>
		</g>
		<path style="fill:#F06363;" d="M294.536,254.146c0,0,7.012,9.854,9.714,34.354c0,0,2.147-19-9.927-38.5L294.536,254.146z"/>
	</g>
</g>
</svg>
