<?xml version="1.0" encoding="utf-8"?>
<!-- Generator: Adobe Illustrator 27.5.0, SVG Export Plug-In . SVG Version: 6.00 Build 0)  -->
<svg version="1.1" xmlns="http://www.w3.org/2000/svg" xmlns:xlink="http://www.w3.org/1999/xlink" x="0px" y="0px"
	 viewBox="0 0 750 500" style="enable-background:new 0 0 750 500;" xml:space="preserve">
<g id="BACKGROUND">
	<rect x="125" style="fill:#FFFFFF;" width="500" height="500"/>
</g>
<g id="OBJECTS">
	<g>
		<path style="fill:#EDEDF7;" d="M134.852,440.483c0,0-65.449-44.239-18.501-81.622c32.245-25.676,33.489-54.945,12.206-80.923
			c-21.283-25.978-49.138-132.594,69.17-99.421c118.308,33.173,107.898,6.877,121.793-60.094
			c13.895-66.971,121.649-74.558,160.69-24.297c43.669,56.219,61.769,56.412,99.442,53.393
			c87.552-7.017,126.664,131.914,80.737,184.824c-43.211,49.781-35.751,72.771-23.231,108.139H134.852z"/>
		<g>
			<path style="fill:#ADC9F2;" d="M586.315,68.748c-38.504,0-69.717,19.008-69.717,42.457c0,17.217,16.838,32.029,41.024,38.692
				c0.661,5.281-0.102,14.707-9.886,25.424c0,0,26.521-2.409,32.633-21.824c1.962,0.101,3.942,0.165,5.947,0.165
				c38.504,0,69.717-19.009,69.717-42.457C656.032,87.756,624.819,68.748,586.315,68.748z"/>
			<g>
				<circle style="fill:#FFFFFF;" cx="558.244" cy="112.04" r="8.285"/>
				<circle style="fill:#FFFFFF;" cx="586.095" cy="112.04" r="8.285"/>
				<circle style="fill:#FFFFFF;" cx="613.945" cy="112.04" r="8.285"/>
			</g>
		</g>
		<g>
			<path style="fill:#2E3A60;" d="M648.737,446.117H491.619V270.514c0-13.991,11.342-25.333,25.333-25.333h106.452
				c13.991,0,25.333,11.342,25.333,25.333V446.117z"/>
			<g>
				<g>
					<path style="fill:#EF765E;" d="M397.455,384.408c-1.341,4.803-1.753,9.768-2.567,14.688
						c-4.051,24.486,11.141,40.602,18.779,38.998c14.103-2.962,28.054-35.882,32.569-49.567
						c4.797-14.539,13.563-50.259,10.098-54.365c-3.327-3.942-8.709-5.434-13.819-6.133c-5.963-0.815-12.223-0.799-17.776,1.524
						C407.379,336.817,401.882,368.553,397.455,384.408z"/>
					<path style="fill:#EF765E;" d="M402.047,386.956c-8.112-7.965-22.975-49.659-20.286-64.155
						c2.139-11.532-1.178-17.531,1.08-24.413c2.364-7.209,4.883-10.798,8.153-17.684c-8.122-6.556-12.32,6.274-16.166,12.363
						c-1.956-2.504-3.872-5.429-4.088-10.954c-0.483-12.348,2.132-27.23-1.962-28.823c-6.683,0-3.925,32.266-8.398,32.719
						c-2.503,0.253-6.319-36.641-11.552-36.641c-5.503,0-0.117,24.711,1.065,36.889c-6.568-6.022-13.357-25.195-17.996-26.446
						c-9.48-0.18,14.315,31.692,9.044,34.58c-2.249,1.233-9.555-7.379-17.623-10.087c-5.655,4.24,5.762,9.908,11.259,14.963
						c1.979,1.82,4.12,3.52,5.696,5.671c1.803,2.461,2.731,5.392,3.715,8.245c4.127,11.966,8.276,10.569,10.074,16.035
						c1.887,5.738,14.411,84.733,22.351,96.069s24.01,18.798,36.824,12.808c3.255-1.522,6.077-3.788,8.582-6.293
						C425.149,428.47,424.049,408.559,402.047,386.956z"/>
					<g>
						<path style="fill:#FF8A6B;" d="M399.643,385.442c5.84,9.001,13.439,16.538,19.036,25.764c0.303,0.499,1.199,0.176,0.98-0.413
							c-3.652-9.809-12.74-17.971-19.174-26C400.105,384.318,399.314,384.935,399.643,385.442L399.643,385.442z"/>
					</g>
					<path style="fill:#F2C691;" d="M415.876,314.663c-5.751,15.431-9.013,26.199-14.709,41.65
						c15.481,9.384,37.492,20.549,55.521,22.199c7.93,0.726,18.005-62.889,10.031-85.445c-5.447-15.408-16.696-19.762-21.422-18.105
						C429.367,280.548,423.229,294.935,415.876,314.663z"/>
				</g>
				<g>
					<g>
						<path style="fill:#FED7A4;" d="M570.897,264.546c-2.296-2.494-40.995-3.717-40.995-3.717
							c-23.651,0.108-39.921,1.667-63.182,5.947c-6.721,1.237-15.425,4.91-21.422,8.186c-10.114,5.525-11.471,10.401-14.397,21.548
							c-2.926,11.147-1.186,27.547,1.252,38.81c4.05,18.707,6.805,32.703,15.074,49.965c2.775,5.793,5.537,11.635,7.245,17.827
							c3.584,12.994,2.348,26.766,1.085,40.186c17.221,7.899,37.133,5.462,56.031,4.105c35.411-2.543,70.974-0.708,106.429,1.128
							C621.531,409.129,599.898,296.048,570.897,264.546z"/>
					</g>
					<g>
						<path style="fill:#F2C691;" d="M457.686,282.334c3.504,14.291,20.686,20.54,33.679,18.706
							c17.646-2.491,34.486-13.16,40.639-30.488c0.249-0.7-0.877-1.181-1.207-0.509c-7.57,15.429-20.022,25.763-37.152,28.901
							c-8.543,1.565-16.769,1.009-24.137-3.958c-4.459-3.007-9.381-7.628-11.356-12.781
							C458.043,281.919,457.61,282.025,457.686,282.334L457.686,282.334z"/>
					</g>
					<path style="fill:#EF765E;" d="M514.882,282.739c-8.965,6.094-14.779,10.012-25.454,11.893s-23.264-5.158-28.155-16.973
						c-1.315-3.176,3.351-5.553,5.807-7.958c3.828-3.748,4.734-9.545,4.764-14.902c0.03-5.358-8.08-12.233,0.992-15.971
						c7.259-2.991,9.838-13.092,17.639-13.484c9.917-0.499,16.258-5.046,19.923,2.936c2.885,6.286,6.573,28.482,19.092,32.55
						C532.941,261.951,517.439,281,514.882,282.739z"/>
				</g>
				<g>
					<path style="fill:#FF8A6B;" d="M479.716,271.728c11.695-1.577,20.185-9.106,25.461-19.662
						c5.276-10.556,8.68-21.834,9.088-33.628c0.4-11.545-1.584-28.815-9.088-37.597c-16.881-19.756-76.676-20.114-74.59,3.241
						c1.565,17.522,9.096,51.501,18.56,67.217C456.445,263.418,464.941,273.72,479.716,271.728z"/>
					<path style="fill:#8A2D40;" d="M521.962,169.975c-2.693-6.915-9.327-14.21-15.32-9.833
						c-11.662-13.991-35.57-17.722-51.213-8.392c-9.199,5.486-32.744,8.778-34.759,8.586c-13.243-1.26-9.862,9.034-5.296,11.259
						l-1.921,0.686c-2.547,0.909-4.048,3.597-3.391,6.22c0.576,2.303,1.965,4.41,3.95,5.72c-1.261-0.164-5.486,1.179-5.269,3.558
						c-1.724,7.11,6.885,11.048,13.796,13.789c11.662,4.626,27.493-0.67,38.506-6.679c10.214-5.572,17.025-12.622,28.506-14.513
						c2.702-0.445,5.669-0.356,7.917,1.207c2.981,2.073,3.846,6.055,4.199,9.669c0.857,8.78,0.275,18.291,5.166,25.632
						c3.932,5.902,12.134,6.788,14.108-0.752c0.659-2.518,2.286-6.813,2.854-9.298C526.047,196.981,524.655,176.89,521.962,169.975z
						"/>
					<g>
						<path style="fill:#A03750;" d="M422.524,187.982c3.549,6.717,13.364,6.354,19.766,5.106
							c6.704-1.307,17.243-5.641,19.678-12.675c0.241-0.696-0.615-1.27-1.207-0.928c-2.412,1.396-4.165,3.721-6.413,5.387
							c-2.846,2.11-6.008,3.746-9.396,4.802c-5.702,1.777-16.822,3.389-20.567-2.781
							C423.664,185.704,421.876,186.755,422.524,187.982L422.524,187.982z"/>
					</g>
					<g>
						<path style="fill:#A03750;" d="M426.241,179.265c4.415,2.971,9.32,3.115,14.492,2.764c3.856-0.261,8.805-0.579,10.849-4.332
							c0.475-0.872-0.471-1.79-1.335-1.335c-6.508,3.429-16.247,5.045-23.099,1.351C426.122,177.16,425.286,178.622,426.241,179.265
							L426.241,179.265z"/>
					</g>
					<g>
						<path style="fill:#A03750;" d="M430.256,171.112c7.078,1.112,17.155,0.906,22.677-4.417c0.53-0.511-0.019-1.37-0.699-1.202
							c-3.43,0.851-6.503,2.653-9.987,3.455c-3.924,0.903-7.793,1.127-11.799,0.751
							C429.649,169.625,429.454,170.986,430.256,171.112L430.256,171.112z"/>
					</g>
					<g>
						<path style="fill:#A03750;" d="M483.504,169.904c3.245-0.379,6.437-0.187,9.568,0.803c3.233,1.022,5.51,3.07,8.457,4.546
							c0.542,0.272,1.333-0.325,0.913-0.913c-3.936-5.51-12.945-6.642-19.109-5.697
							C482.626,168.752,482.784,169.988,483.504,169.904L483.504,169.904z"/>
					</g>
					<g>
						<path style="fill:#A03750;" d="M487.7,161.037c2.084,0.254,4.136,0.697,6.129,1.357c1.816,0.602,3.523,1.684,5.416,1.969
							c1.01,0.152,1.862-0.967,1.049-1.802c-2.893-2.974-8.661-3.64-12.594-3.989C486.103,158.43,486.158,160.849,487.7,161.037
							L487.7,161.037z"/>
					</g>
					<g>
						<path style="fill:#A03750;" d="M506.836,182.417c1.346,2.129,2.358,4.387,2.907,6.855c0.431,1.936-0.013,4.467,1.21,6.09
							c0.289,0.384,0.914,0.613,1.29,0.166c1.504-1.782,0.774-4.464,0.274-6.57c-0.669-2.813-1.889-5.424-3.508-7.811
							C508.108,179.82,505.962,181.035,506.836,182.417L506.836,182.417z"/>
					</g>
					<g>
						<path style="fill:#A03750;" d="M508.934,175.853c1.46,0.664,2.745,1.572,3.809,2.778c0.995,1.129,1.513,2.684,2.539,3.733
							c0.477,0.487,1.3,0.112,1.315-0.545c0.037-1.651-1.423-3.417-2.538-4.504c-1.306-1.272-2.845-2.195-4.551-2.823
							C508.724,174.204,508.165,175.503,508.934,175.853L508.934,175.853z"/>
					</g>
					<g>
						<path style="fill:#A03750;" d="M510.023,168.546c1.507,0.251,2.832,0.934,3.863,2.073c0.89,0.983,1.133,2.505,2.182,3.295
							c0.274,0.206,0.769,0.058,0.913-0.24c0.764-1.574-0.769-3.486-1.878-4.514c-1.359-1.261-3.033-1.987-4.869-2.178
							C509.351,166.891,509.138,168.399,510.023,168.546L510.023,168.546z"/>
					</g>
					<path style="fill:#FF8A6B;" d="M512.329,200.352c-9.677,0.003-10.298,16.207-7.479,24.012
						c3.141,8.697,10.72,10.386,14.71,1.878C523.315,218.233,522.249,200.349,512.329,200.352z"/>
					<path style="fill:#FFFFFF;" d="M481.715,245.518c-5.49,1.861-22.02,3.92-24.101,3.108c3.371,9.657,9.604,13.459,15.015,12.204
						C477.327,259.741,483.153,248.156,481.715,245.518z"/>
					<g>
						<path style="fill:#8A2D40;" d="M465.883,206.792c2.727-2.584,6.419-3.541,10.12-3.201c2.919,0.268,5.622,2.188,8.5,1.749
							c1.027-0.157,1.302-1.45,0.905-2.225c-1.798-3.512-8.024-3.783-11.486-3.423c-4.099,0.426-7.391,2.423-9.773,5.762
							C463.4,206.505,465.004,207.625,465.883,206.792L465.883,206.792z"/>
					</g>
					<g>
						<path style="fill:#8A2D40;" d="M452.603,206.715c-4.975-3.159-11.7-2.824-16.743,0.026c-0.729,0.412-0.953,1.225-0.813,1.997
							c0.097,0.533,0.366,0.789,0.813,1.057c0.531,0.318,1.255,0.327,1.785,0c3.86-2.383,9.62-3.075,13.74-0.995
							C452.768,209.497,453.922,207.553,452.603,206.715L452.603,206.715z"/>
					</g>
					<path style="fill:#8A2D40;" d="M475.57,220.013c0.297,2.249-0.778,4.246-2.402,4.46c-1.624,0.215-3.181-1.434-3.478-3.683
						c-0.297-2.249,0.778-4.245,2.402-4.46C473.715,216.116,475.273,217.765,475.57,220.013z"/>
					<path style="fill:#8A2D40;" d="M451.944,223.215c0.297,2.249-0.778,4.246-2.402,4.46c-1.624,0.215-3.181-1.434-3.478-3.683
						c-0.297-2.249,0.778-4.245,2.402-4.46C450.09,219.318,451.647,220.967,451.944,223.215z"/>
					<g>
						<path style="fill:#EF765E;" d="M455.958,221.09c0.106,2.488,0.864,4.615,1.739,6.941c1.043,2.77,1.458,4.191-1.061,6.12
							c-2.081,1.594-4.15,3.258-2.974,6.294c2.148,5.546,13.972,2.812,17.514,0.942c1.124-0.594,0.281-2.064-0.801-1.9
							c-3.729,0.564-7.247,2.071-11.106,1.617c-1.958-0.23-2.916-0.171-2.429-2.38c0.435-1.972,0.849-1.782,2.191-2.946
							c5.15-4.466,0.053-9.201-0.417-14.688C458.471,219.411,455.884,219.361,455.958,221.09L455.958,221.09z"/>
					</g>
					<g>
						<path style="fill:#EF765E;" d="M507.94,213.409c0.021-1.368,0.753-2.723,1.381-3.899c1.57-2.939,4.045-0.286,4.987,1.987
							c2.06,4.967,2.196,10.258-1.812,14.284c-1.555,1.561,0.929,4.029,2.412,2.412c2.802-3.055,3.829-6.882,3.497-10.993
							c-0.284-3.515-1.837-9.302-4.921-11.479c-4.41-3.113-7.193,4.491-6.697,7.845C506.886,214.235,507.93,214.049,507.94,213.409
							L507.94,213.409z"/>
					</g>
					<g>
						<path style="fill:#EF765E;" d="M509.5,217.931c-0.108-0.394,0.261-1.499,0.808-1.368c0.178,0.043,0.243,0.329,0.34,0.456
							c0.409,0.537,0.494,1.568,0.648,2.207c0.233,0.969,0.348,1.758-0.019,2.712c-0.274,0.713-0.862,1.276-1.009,2.027
							c-0.232,1.189,1.175,2.181,2.115,1.231c1.197-1.208,0.487-3.124,0.535-4.625c0.05-1.563,0.148-3.07-0.709-4.465
							c-1.686-2.743-5.561,0.308-3.752,2.431C508.875,219.026,509.657,218.502,509.5,217.931L509.5,217.931z"/>
					</g>
				</g>
				<g>
					<path style="fill:#FF8A6B;" d="M613.996,358.861c-0.422-6.934-8.75-49.699-21.596-66.733
						c-9.408-12.475-46.398,2.152-41.314,33.802c3.541,22.04,13.339,41.748,15.962,63.849c-19.405-0.313-86.33-2.772-89.418-2.828
						c-10.68-0.193-34.682-1.085-35.895-0.611c-2.898,1.133-13.326,17.694-14.58,19.429c-2.384,3.299,4.37,22.859,9.136,24.264
						c4.604-1.405-0.284-9.258-0.426-13.887c0.974-0.61,9.246,12.096,10.867,12.483c4.941,1.179-0.696-9.983-1.122-14.436
						c1.063,5.635,12.231,10.842,16.699,14.436c6.461-2.391-6.088-10.438-6.208-16.005c2.946,1.194,5.973,2.406,9.151,2.473
						c3.178,0.068,6.587-1.257,8.113-4.045c0.516-0.943,42.008,9.714,61.318,12.062c16.498,2.005,49.418,7.41,64.915,1.408
						C615.908,415.294,616.106,393.497,613.996,358.861z"/>
					<path style="fill:#F2C691;" d="M543.261,316.541c2.433,18.192,11.464,39.828,17.527,59.173
						c24.446,9.39,50.391-3.462,56.024-10.661c-1.313-17.291-6.815-43.957-13.037-60.143c-5.303-13.796-17.497-36.965-32.879-40.364
						C547.017,259.269,539.939,291.703,543.261,316.541z"/>
					<g>
						<path style="fill:#EF765E;" d="M572.055,391.19c6.583,0.312,11.739,2.557,16.473,6.991c0.222,0.208,0.652,0.073,0.634-0.263
							c-0.154-2.845-3.631-4.416-5.895-5.472c-3.557-1.658-7.306-2.343-11.212-2.231C571.426,390.234,571.429,391.16,572.055,391.19
							L572.055,391.19z"/>
					</g>
				</g>
			</g>
			<g>
				<g>
					<path style="fill:#EF765E;" d="M434.521,412.809c-0.904-1.917-1.84-3.589-0.887-5.556c0.592-1.222,1.323-2.395,2.038-3.547
						c1.148-1.849,2.709-3.58,3.626-5.543c0.14-0.3-0.019-0.762-0.417-0.727c-2.316,0.199-4.41,5.155-5.383,6.833
						c-1.976,3.411-2.698,5.81,0.125,9.233C434.063,414.034,434.779,413.355,434.521,412.809L434.521,412.809z"/>
				</g>
			</g>
			<g>
				<g>
					<path style="fill:#EF765E;" d="M444.692,408.745c-1.925-4.249,2.885-8.116,4.641-11.446c0.137-0.26-0.167-0.657-0.445-0.445
						c-3.293,2.512-7.218,8.122-5.077,12.405C444.109,409.853,444.959,409.333,444.692,408.745L444.692,408.745z"/>
				</g>
			</g>
			<rect x="95.388" y="440.483" style="fill:#C4CDEE;" width="579.823" height="17.84"/>
			<g>
				<path style="fill:#2E3A60;" d="M171.768,394.242h-33.464c-1.907,0-3.453,1.546-3.453,3.453v5.54
					c-3.183-0.895-6.55-0.792-9.73,0.864c-4.473,2.329-6.37,6.932-6.888,11.782c-0.568,5.315,1.194,10.937,5.402,14.396
					c2.797,2.299,7.17,3.594,11.216,3.494v6.712h40.37v-42.788C175.221,395.788,173.675,394.242,171.768,394.242z M128.941,426.077
					c-3.041-1.697-4.164-5.211-3.819-8.531c0.649-6.244,4.558-8.864,9.729-7.042v16.49
					C132.854,427.116,130.879,427.159,128.941,426.077z"/>
				<g>
					<path style="fill:#FFFFFF;" d="M144.811,386.172c-4.205-4.128-7.683-9.063-2.696-13.992c1.855-1.834,4.068-3.301,5.454-5.568
						c3.386-5.535-1.064-11.3-2.622-16.657c-0.952-3.272-5.721-1.895-5.063,1.396c0.807,4.031,5.135,7.156,4.766,11.298
						c-0.343,3.852-4.677,5.832-6.847,8.729c-4.777,6.375,0.22,12.321,5.422,16.381
						C144.329,388.619,145.871,387.213,144.811,386.172L144.811,386.172z"/>
				</g>
				<g>
					<path style="fill:#FFFFFF;" d="M157.99,386.021c-2.36-1.996-5.055-5.089-3.348-8.621c0.745-1.541,2.396-2.73,3.367-4.164
						c1.452-2.142,2.332-4.483,2.506-7.077c0.296-4.415-1.711-11.117-5.878-13.322c-1.412-0.747-3.209,0.806-2.282,2.282
						c2.202,3.506,5.359,5.738,5.327,10.367c-0.033,4.707-3.872,6.57-5.932,10.223c-2.817,4.996,0.552,9.465,4.882,12.073
						C157.696,388.422,158.982,386.859,157.99,386.021L157.99,386.021z"/>
				</g>
				<g>
					<path style="fill:#FFFFFF;" d="M167.891,385.736c-2.853-2.25,0.2-4.61,1.524-6.665c0.845-1.312,1.319-2.84,1.564-4.367
						c0.399-2.497,0.352-5.397-1.537-7.248c-0.523-0.513-1.603-0.17-1.54,0.638c0.189,2.421,1.195,4.512,0.333,6.971
						c-0.857,2.445-3.173,3.634-4.276,5.855c-1.34,2.7-0.104,5.45,2.342,6.877C167.543,388.523,169.092,386.684,167.891,385.736
						L167.891,385.736z"/>
				</g>
			</g>
			<g>
				<polygon style="fill:#2E3A60;" points="396.42,428.628 220.619,428.628 194.596,322.801 370.397,322.801 				"/>
				<polygon style="fill:#1A2039;" points="393.603,428.628 217.803,428.628 191.779,322.801 367.58,322.801 				"/>
				<rect x="217.803" y="428.628" style="fill:#2E3A60;" width="257.918" height="11.855"/>
				<rect x="393.603" y="428.628" style="fill:#1A2039;" width="82.117" height="11.855"/>
				<g>
					<path style="fill:#2E3A60;" d="M301.634,376.493c0,0.347-0.047,0.685-0.131,1.014c-0.826,3.052-5.286,5.39-10.667,5.39
						c-5.962,0-10.798-2.873-10.798-6.404c0-2.225,1.906-4.178,4.807-5.333c1.718-0.676,3.775-1.07,5.991-1.07
						C296.798,370.09,301.634,372.953,301.634,376.493z"/>
					<path style="fill:#41537F;" d="M301.634,376.493c0,0.347-0.047,0.685-0.131,1.014c-1.718,0.676-3.775,1.07-5.991,1.07
						c-5.972,0-10.798-2.864-10.798-6.404c0-0.347,0.047-0.686,0.131-1.014c1.718-0.676,3.775-1.07,5.991-1.07
						C296.798,370.09,301.634,372.953,301.634,376.493z"/>
				</g>
			</g>
		</g>
		<g>
			<g>
				<ellipse style="fill:#ADC9F2;" cx="134.851" cy="214.203" rx="90.019" ry="100.991"/>
				<g>
					<defs>
						<ellipse id="SVGID_1_" cx="134.851" cy="214.203" rx="90.019" ry="100.991"/>
					</defs>
					<clipPath id="SVGID_00000005987333180986424970000001002429966250638526_">
						<use xlink:href="#SVGID_1_"  style="overflow:visible;"/>
					</clipPath>
					<g style="clip-path:url(#SVGID_00000005987333180986424970000001002429966250638526_);">
						<g>
							<path style="fill:#4D8BD6;" d="M152.718,199.195c12.989-0.249,26.031,25.506,29.08,33.516
								c2.067,5.431,8.637,26.351,8.887,31.779c0.137,2.977,0.128,6.345-2.009,8.422c-2.686,2.61-7.415,1.578-10.081-1.052
								c-2.666-2.63-10.936-11.751-12.887-14.949c-10.145-16.627-18.867-22.316-24.944-40.347
								C136.021,202.489,152.718,199.195,152.718,199.195z"/>
							<path style="fill:#FF8A6B;" d="M159.057,186.095c-0.139-2.074,3.21-1.628,5.246,0.125c2.035,1.753,1.577,3.961,4.259,3.807
								c-0.338-1.993,0.088-3.193-0.681-5.062c-2.174-5.286-6.432-12.304-4.695-13.335c2.321-1.189,5.211,7.631,8.871,12.794
								c2.346,1.753-1.42-14.094-0.824-15.168c2.364-3.295,3.642,8.527,6.041,14.541c0.702,0.614,1.343-12.408,2.003-12.941
								c3.231-2.613,1.798,14.206,2.883,14.353c0.936,0.422,2.136-9.961,3.743-9.044c2.052,0-0.178,6.688-1.172,12.877
								c-0.426,2.655,0.587,8.739-1.372,10.743c-0.585,0.598,3.803,8.621,3.375,9.247c-1.137,1.663-8.174,2.285-10.864,0.619
								c-1.923-1.191-1.346-7.327-3.145-8.24c-2.872-1.457-4.464-2.633-6.747-5.865
								C162.891,191.179,159.634,186.746,159.057,186.095z"/>
							<path style="fill:#4D8BD6;" d="M190.636,274.4c3.908-0.964,13.182-4.496,9.932-23.369
								c-3.095-17.973-15.475-49.323-15.979-49.251c-3.909,0.562-7.818,1.124-11.728,1.687c1.398-0.201,4.376,38.342,4.743,42.72
								C178.382,255.459,174.35,278.416,190.636,274.4z"/>
							<g>
								<path style="fill:#417CB7;" d="M176.76,239.036c-0.305,7.845,0.083,16.814,2.787,24.269c0.085,0.234,0.51,0.224,0.472-0.064
									c-1.065-8.179-2.544-15.894-2.545-24.205C177.474,238.575,176.778,238.578,176.76,239.036L176.76,239.036z"/>
							</g>
							<g>
								<path style="fill:#417CB7;" d="M175.642,207.489c2.53,0.337,6.114,0.385,8.306-1.14c0.18-0.126,0.142-0.487-0.125-0.461
									c-1.203,0.116-2.346,0.601-3.541,0.815c-1.525,0.273-3.095,0.342-4.64,0.292
									C175.315,206.984,175.337,207.449,175.642,207.489L175.642,207.489z"/>
							</g>
							<g>
								<path style="fill:#EF765E;" d="M174.931,200.748c0.859,1.053,2.056-0.156,2.816-0.672c0.818-0.555,1.68,0.137,2.554,0.227
									c0.698,0.071,1.368,0.071,1.936-0.365c0.142-0.109,0.172-0.402-0.057-0.439c-0.842-0.137-1.662,0.088-2.502-0.162
									c-0.533-0.159-1.049-0.644-1.64-0.581c-0.487,0.052-0.735,0.42-1.078,0.712c-0.637,0.542-1.435,0.489-2.028,1.017
									C174.851,200.557,174.871,200.674,174.931,200.748L174.931,200.748z"/>
							</g>
						</g>
						<g>
							<path style="fill:#5A96ED;" d="M74.801,208.403c-0.985,1.572,6.681,28.72,9.85,40.608c2.249,8.436,6.579,55.675,3.062,76.529
								c22.063,3.273,53.819,2.104,75.922-0.882c0.54-27.887,1.487-95.578-2.647-110.455c-1.402-5.048-4.727-15.257-9.965-15.257
								c-11.761,0-39.214-0.032-50.851,1.103C91.12,200.932,76.721,205.337,74.801,208.403z"/>
							<g>
								<path style="fill:#4D8BD6;" d="M99.261,205.21c4.509,10.393,15.926,16.194,27.02,15.539c0.511-0.03,0.514-0.771,0-0.797
									c-11.275-0.57-21.069-4.612-26.475-15.061C99.616,204.522,99.103,204.846,99.261,205.21L99.261,205.21z"/>
							</g>
							<g>
								<path style="fill:#4D8BD6;" d="M130.916,220.461c7.535-0.823,14.579-6.308,14.468-14.435c-0.008-0.552-0.819-0.544-0.852,0
									c-0.469,7.717-6.325,12.651-13.722,13.652C130.37,219.738,130.469,220.51,130.916,220.461L130.916,220.461z"/>
							</g>
							<path style="fill:#EF765E;" d="M108.575,189.422c-0.995,6.342-3.934,9.752-5.894,10.627
								c-4.307,1.923,3.343,9.832,7.161,12.75c7.955,6.081,19.779,6.739,28.342,1.759c1.726-1.004,2.647-3.119,3.618-4.983
								c0.971-1.864,1.115-5.917-0.251-7.452c-1.848-2.078-3.158-2.261-5.464-3.681c-2.248-1.384-1.776-14.429-2.396-17.182
								c-1.04-4.619-17.516-5.865-22.961-5.805C111.366,175.447,108.779,188.125,108.575,189.422z"/>
						</g>
						<g>
							<path style="fill:#FF8A6B;" d="M113.633,184.971c3.308,6.032,9.357,11.012,16.235,11.161
								c1.902,0.041,4.026-0.094,5.457-1.347c7.565-6.625,8.831-20.957,9.507-28.458c0.409-4.537,2.176-10.885-0.05-14.859
								c-1.668-2.979-6.22-3.667-9.098-5.504c-3.717-2.372-7.876-4.265-12.278-4.523c-4.402-0.259-9.078,1.34-11.734,4.859
								C105.197,154.874,108.924,176.386,113.633,184.971z"/>
							<path style="fill:#2E3A60;" d="M123.764,154.984c3.696,4.786,9.232,4.792,13.19,0.22c3.414,2.012,8.159,4.822,11.869,3.429
								c3.71-1.392,6.604-5.077,6.532-9.04c-0.072-3.962-3.513-7.727-7.475-7.665c0.67-2.882-0.659-6.119-3.161-7.698
								c-2.502-1.58-7.649-1.934-9.963-0.09c-2.081-3.688-5.06-4.217-9.761-3.287c-4.442,0.878-6.128,4.47-7.069,4.427
								c-3.157-0.146-6.506,0.168-9.095,1.981c-2.589,1.813-4.063,5.509-2.531,8.274c-2.562-1.755-6.363,0.563-7.032,3.596
								c-0.668,3.033,0.867,6.124,2.77,8.579c-4.434,0.571-4.479,4.084-4.433,6.289c0.047,2.269,1.995,4.482,4.177,4.777
								c-1.74,4.079,4.396,12.484,8.134,6.213c1.791-3.006,4.559-9.289,3.282-16.487
								C116.74,160.457,122.666,159.308,123.764,154.984z"/>
							<path style="fill:#FF8A6B;" d="M113.19,169.65c-0.067-3.697-5.913-10.709-8.673-1.653
								c-1.089,3.572,1.135,10.241,4.783,10.241C110.45,178.238,113.362,179.142,113.19,169.65z"/>
							<path style="fill:#FFFFFF;" d="M135.415,181.285c-3.447-0.037-10.63-0.031-11.651,0c0.228,2.172,2.895,8.143,7.245,8.137
								C133.244,189.419,135.367,183.877,135.415,181.285z"/>
							<path style="fill:#2E3A60;" d="M125.261,167.465c-0.093,1.328-0.946,2.35-1.905,2.282c-0.959-0.067-1.66-1.198-1.567-2.526
								c0.093-1.328,0.946-2.349,1.905-2.282C124.653,165.006,125.355,166.137,125.261,167.465z"/>
							<path style="fill:#2E3A60;" d="M139.88,167.465c-0.093,1.328-0.946,2.35-1.905,2.282c-0.959-0.067-1.66-1.198-1.567-2.526
								c0.093-1.328,0.946-2.349,1.905-2.282C139.271,165.006,139.973,166.137,139.88,167.465z"/>
							<g>
								<path style="fill:#EF765E;" d="M130.031,163.779c-0.189,2.213-0.367,5.78,1.331,7.55c0.879,0.916,3.612,1.257,3.282,3.089
									c-0.565,3.139-3.767,2.976-6.021,2.29c-0.496-0.151-0.977,0.57-0.535,0.919c2.432,1.918,6.776,1.171,7.809-2.068
									c0.44-1.379,0.074-2.944-1.064-3.873c-1.1-0.898-2.14-0.658-2.91-2.147c-0.851-1.645-0.798-3.96-0.766-5.761
									C131.17,163.044,130.091,163.067,130.031,163.779L130.031,163.779z"/>
							</g>
							<g>
								<path style="fill:#2E3A60;" d="M120.293,160.801c0.758-2.059,6.044-0.572,7.357-0.03c1.161,0.479,1.888-1.393,0.842-1.996
									c-2.268-1.307-8.838-1.83-9.683,1.617C118.571,161.367,119.955,161.72,120.293,160.801L120.293,160.801z"/>
							</g>
							<g>
								<path style="fill:#2E3A60;" d="M142.569,161.979c0.221-1.445-1.338-2.478-2.576-2.816c-1.562-0.427-3.751-0.307-5.126,0.579
									c-0.9,0.58-0.347,2.186,0.762,1.808c1.989-0.677,4.262-1.424,5.671,0.594C141.6,162.574,142.47,162.626,142.569,161.979
									L142.569,161.979z"/>
							</g>
							<g>
								<path style="fill:#EF765E;" d="M110.923,169.036c-6.85-7.697-6.026,9.901-1.258,7.329c0.325-0.175,0.196-0.772-0.198-0.73
									c-2.384,0.256-2.579-3.036-2.683-4.677c-0.046-0.718-0.128-1.708,0.337-2.318c1.075-1.413,2.626,0.196,3.346,0.851
									C110.775,169.773,111.199,169.346,110.923,169.036L110.923,169.036z"/>
							</g>
							<g>
								<path style="fill:#EF765E;" d="M110.855,171.455c-0.716-0.431-1.733-0.041-1.971,0.77c-0.306,1.039,0.404,1.96,1.264,2.445
									c0.595,0.335,1.135-0.599,0.534-0.913c-0.406-0.212-0.826-0.514-0.866-1.012c-0.037-0.475,0.304-0.881,0.791-0.7
									C110.957,172.176,111.16,171.639,110.855,171.455L110.855,171.455z"/>
							</g>
							<g>
								<path style="fill:#3A4C77;" d="M113.271,150.747c0.706,0.652,2.122,1.955,3.218,1.701c0.907-0.21,0.808-1,1.324-1.619
									c1.663-1.998,3.146-0.09,5.106-0.19c1.33-0.068,2.394-0.679,3.304-1.606c0.44-0.449-0.254-1.143-0.69-0.69
									c-1.768,1.835-3.391,1.213-5.443,0.507c-0.52-0.179-0.955-0.38-1.537-0.221c-0.511,0.14-0.82,0.47-1.138,0.873
									c-0.251,0.318-0.304,0.851-0.569,1.135c-0.084,0.68-0.457,0.83-1.118,0.453c-0.768,0.027-1.399-0.275-1.893-0.906
									C113.448,149.856,112.889,150.395,113.271,150.747L113.271,150.747z"/>
							</g>
							<g>
								<path style="fill:#3A4C77;" d="M128.432,143.294c3.075-1.025,2.907,2.544,4.879,3.617c1.417,0.771,3.688,0.452,5.192,0.142
									c0.279-0.058,0.333-0.487,0.08-0.615c-1.023-0.521-1.786-0.258-2.914-0.217c-1.254,0.046-2.028-0.011-2.909-1.244
									c-0.351-0.491-0.497-1.063-0.898-1.53c-0.93-1.083-2.32-1.322-3.62-0.841C127.817,142.762,127.991,143.441,128.432,143.294
									L128.432,143.294z"/>
							</g>
							<g>
								<path style="fill:#3A4C77;" d="M138.93,150.747c0.888,0.839,1.812,1.685,3.086,1.776c1.341,0.096,2.618-0.438,4.002-0.327
									c1.496,0.121,3.84,0.108,3.986-1.849c0.016-0.219-0.29-0.337-0.434-0.18c-1.633,1.781-3.034,0.994-5.138,1.036
									c-0.583,0.011-1.138,0.18-1.717,0.206c-1.342,0.061-2.292-0.484-3.319-1.266
									C139.046,149.877,138.617,150.452,138.93,150.747L138.93,150.747z"/>
							</g>
							<g>
								<path style="fill:#3A4C77;" d="M139.092,141.288c0.686-0.17,1.385,0.072,1.773,0.677c0.288,0.448,0.068,1.132,0.477,1.477
									c0.141,0.119,0.285,0.128,0.449,0.058c0.908-0.388,0.114-1.906-0.343-2.352c-0.682-0.665-1.727-0.734-2.567-0.363
									C138.587,140.915,138.8,141.359,139.092,141.288L139.092,141.288z"/>
							</g>
							<g>
								<path style="fill:#3A4C77;" d="M115.267,143.72c-0.21-1.011,0.825-1.605,1.686-1.612c0.747-0.006,1.425,0.373,2.161,0.347
									c0.379-0.013,0.453-0.459,0.18-0.666c-1.629-1.233-5.406-0.461-4.756,2.132C114.658,144.395,115.366,144.193,115.267,143.72
									L115.267,143.72z"/>
							</g>
							<g>
								<path style="fill:#3A4C77;" d="M124.512,138.939c-0.182-2.286,3.396-1.725,4.582-2.442c0.266-0.161,0.248-0.524,0-0.688
									c-1.053-0.697-3.023,0.018-4.012,0.584c-0.992,0.567-1.669,1.503-1.461,2.667
									C123.71,139.559,124.552,139.449,124.512,138.939L124.512,138.939z"/>
							</g>
							<g>
								<path style="fill:#3A4C77;" d="M105.638,150.819c-1.196,0.875-1.852,2.282-0.931,3.604c0.879,1.262,2.587,1.24,1.939,3.306
									c-0.274,0.872-0.712,1.166-0.577,2.124c0.073,0.516,0.809,0.333,0.85-0.115c0.136-1.469,1.262-2.458,0.713-3.989
									c-0.181-0.504-0.505-0.887-0.881-1.261c-0.159-0.159-0.345-0.294-0.52-0.435c-0.607-0.196-0.784-0.583-0.53-1.161
									c-0.093-0.543,0.092-0.967,0.553-1.274C106.657,151.227,106.114,150.471,105.638,150.819L105.638,150.819z"/>
							</g>
						</g>
						<g>
							<g>
								<path style="fill:#1A2039;" d="M173.43,226.458l-13.482-0.648c-2.017-0.097-3.731,1.46-3.828,3.477l-1.612,33.55
									c-0.097,2.017,1.46,3.731,3.477,3.828l13.482,0.648c2.017,0.097,3.731-1.46,3.828-3.477l1.611-33.55
									C177.004,228.268,175.447,226.554,173.43,226.458z"/>
								<path style="fill:#FFFFFF;" d="M173.024,230.742c0,1.088-0.882,1.969-1.969,1.969s-1.969-0.882-1.969-1.969
									s0.882-1.969,1.969-1.969S173.024,229.655,173.024,230.742z"/>
							</g>
							<path style="fill:#FF8A6B;" d="M155.563,240.284c0.34,2.796,0.529,2.164-0.273,6.277c5.474-0.922,10.839-11.309,12.732-9.288
								c1.319,1.409-6.595,9.965-6.155,10.991c0.277,0.647,10.74-10.351,11.578-8.06c0.59,1.612-9.415,11.061-9.085,12.128
								c0.234,0.758,9.329-5.454,9.675-4.772c0.876,1.729-7.572,8.028-8.327,9.35c-0.655,1.146,6.561-2.166,6.858-0.879
								c0.44,1.905-9.58,6.833-14.948,8.353c-1.994,0.565-5.487,1.249-7.254,2.332c-0.834,0.511-9.147,4.56-9.665,4.085
								c-3.691-3.381-0.817-11.492,2.548-14.403C147.945,252.333,150.272,241.778,155.563,240.284z"/>
							<path style="fill:#4D8BD6;" d="M96.945,287.32c5.844,2.189,48.114-14.405,53.418-20.604c1.55-1.812-1.402-9.219-7.118-10.318
								c-9.013,3.424-28.914,5.48-38.046,8.573c-2.164,0.733-5.358-28.272-6.434-30.849c-3.562-8.53-3.639-22.642-12.812-26.519
								c-8.375-3.539-15.657,1.364-16.414,10.272c-0.947,11.144,3.632,30.818,8.5,40.501
								C84.176,270.58,84.152,282.529,96.945,287.32z"/>
							<g>
								<path style="fill:#417CB7;" d="M102.232,267.052c-3.156,1.235-5.445,4.664-5.749,8.019
									c-0.023,0.254,0.328,0.305,0.448,0.121c0.883-1.354,1.329-2.944,2.247-4.296c0.878-1.293,1.973-2.358,3.404-3.016
									C103.043,267.669,102.712,266.864,102.232,267.052L102.232,267.052z"/>
							</g>
							<g>
								<path style="fill:#417CB7;" d="M102.627,269.617c-0.836,1.331-1.921,4.266-0.571,5.587c0.188,0.184,0.515,0.102,0.586-0.155
									c0.2-0.725-0.079-1.487-0.066-2.235c0.018-0.998,0.269-1.918,0.727-2.802C103.535,269.565,102.896,269.188,102.627,269.617
									L102.627,269.617z"/>
							</g>
							<g>
								<path style="fill:#417CB7;" d="M141.116,259.94c1.37,0.919,2.501,1.973,3.264,3.465c0.685,1.34,0.9,2.884,1.656,4.174
									c0.109,0.187,0.412,0.108,0.41-0.111c-0.03-3.006-2.078-7.159-5.017-8.269C140.977,259.029,140.755,259.698,141.116,259.94
									L141.116,259.94z"/>
							</g>
						</g>
					</g>
				</g>
			</g>
			<polygon style="fill:#ADC9F2;" points="175.221,292.655 213.618,312.427 199.911,277.939 			"/>
		</g>
		<g>
			<g>
				<ellipse style="fill:#FFC0D8;" cx="309.254" cy="140.503" rx="83.345" ry="93.503"/>
				<g>
					<defs>
						
							<ellipse id="SVGID_00000094590155385851121340000001267602448762382478_" cx="309.254" cy="140.503" rx="83.345" ry="93.503"/>
					</defs>
					<clipPath id="SVGID_00000038381346937710716570000000974450986032344719_">
						<use xlink:href="#SVGID_00000094590155385851121340000001267602448762382478_"  style="overflow:visible;"/>
					</clipPath>
					<g style="clip-path:url(#SVGID_00000038381346937710716570000000974450986032344719_);">
						<path style="fill:#FD515B;" d="M324.292,125.642c0.024-2.574-1.525-4.885-2.072-7.4c-1.315-6.051,3.268-11.943,3.09-18.132
							c-0.051-1.761-0.489-3.486-0.924-5.193c-0.898-3.521-1.314-6.951-1.314-10.584c0-8.044-3.065-10.463-7.914-11.444
							c-1.799-0.364-2.198-2.899-6.818-5.3c-7.087-3.684-20.538-0.497-25.717,3.864c-8.353,7.035-5.152,10.105-8.573,15.828
							c-3.502,5.857-8.275,9.319-5.542,15.572c1.441,3.296,3.888,6.375,3.819,9.971c-0.059,3.102-1.991,5.8-3.257,8.633
							c-3.383,7.572-1.725,17.117,4.013,23.104c1.957,2.042,4.311,3.674,6.236,5.746c3.092,3.328,4.963,7.766,5.189,12.303
							c0.078,1.575-0.025,3.208,0.561,4.672c1.006,2.514,3.869,3.884,6.576,3.939c2.707,0.055,5.312-0.948,7.824-1.96
							c4.317-1.738,8.606-3.548,12.863-5.428c2.188-0.967,4.448-2.012,5.972-3.856c1.526-1.847,2.128-4.279,2.495-6.647
							c0.628-4.055,0.696-8.196,0.201-12.269c-0.23-1.891-0.58-3.811-0.235-5.684C321.394,131.955,324.26,129.119,324.292,125.642z"
							/>
						<g>
							<path style="fill:#F2887C;" d="M343.846,148.745c5.107,9.163,9.521,12.94,13.812,20.457
								c1.797,13.19-11.871,16.56-18.466,5.422c-9.268-15.653-18.66-29.139-18.568-37.624c0.019-1.69,3-9.39,4.69-9.403
								c2.702-0.021,5.28,1.744,7.398,3.648C338.195,136.171,340.327,142.43,343.846,148.745z"/>
							<path style="fill:#F99585;" d="M358.046,165.291c-3.054-11.629-10.907-40.054-10.299-43.097
								c0.75-3.756-0.043-9.227-0.021-9.877c0.03-0.876,1.856-6.907,0.6-7.169c-1.142-0.238-1.948,6.04-3.173,5.889
								c-0.682-0.084,0.716-13.307-2.254-10.961c-0.515,0.407,0.257,9.361-0.943,9.392c-0.882,0.022-2.035-10.72-4.154-10.57
								c-2.142,0.152,1.969,10.719,0.863,11.044c-1.958,0.575-4.722-8.413-6.339-7.098c-1.798,1.462,2.758,6.961,3.212,9.234
								c0.305,1.53,1.435,4.146-0.014,4.723c-1.641,0.654-2.399-6.478-5.266-3.128c1.137,0.883,1.958,2.913,2.675,5.437
								c0.879,3.1,4.708,4.295,5.65,6.311c1.54,3.297,1.688,26.918,1.669,36.578c-0.01,4.914-0.006,9.223,1.67,13.842
								c2.846,7.842,14.59,9.022,16.678-0.448C359.595,170.877,359.221,169.764,358.046,165.291z"/>
							<g>
								<path style="fill:#F2887C;" d="M340.345,124.624c0.576,0.317,1.284,0.461,1.941,0.397c0.268-0.026,0.542-0.091,0.781-0.22
									c0.212-0.115,0.578-0.619,0.789-0.518c0.498,0.239,1.147-0.437,0.64-0.83c-0.598-0.463-1.151-0.462-1.669,0.1
									c-0.637,0.691-1.439,0.348-2.267,0.276C340.132,123.793,339.991,124.429,340.345,124.624L340.345,124.624z"/>
							</g>
							<g>
								<path style="fill:#F2887C;" d="M343.369,126.989c0.135,1.45,0.226,2.901,0.379,4.35c0.133,1.257,0.118,2.602,0.56,3.789
									c0.091,0.245,0.419,0.197,0.445-0.06c0.263-2.573-0.727-5.572-1.142-8.111C343.59,126.819,343.356,126.85,343.369,126.989
									L343.369,126.989z"/>
							</g>
						</g>
						<g>
							<path style="fill:#BF3A7C;" d="M273.299,134.986c-3.113,2.191-0.908,17.238,0.097,20.91
								c2.64,9.639,9.696,22.912,9.667,40.442c-0.018,11.152-8.134,12.586-10.112,37.819c18.759,8.663,65.337,4.154,65.334,0
								c-0.01-14.677-8.858-30.563-7.74-42.357c1.241-13.081,8.15-20.942,6.706-27.721c-2.257-10.592-7.748-11.268-9.784-18.022
								c-2.128-7.062-2.153-10.512-2.153-18.461c0,0-6.404-1.655-7.175-1.556c-10.574,1.354-21.715-0.211-31.973,2.69
								C281.885,129.942,278.49,131.332,273.299,134.986z"/>
							<g>
								<path style="fill:#A0306E;" d="M314.528,158.447c0.459,1.735,1.578,3.025,2.401,4.589c1.12,2.126,1.394,4.233,1.816,6.553
									c0.091,0.5,0.802,0.337,0.837-0.113c0.137-1.783-0.355-3.625-1.034-5.266c-0.883-2.134-2.635-3.777-3.411-5.931
									C315.001,157.901,314.422,158.048,314.528,158.447L314.528,158.447z"/>
							</g>
							<path style="fill:#F99585;" d="M292.438,123.368c0.004,1.036-0.026,2.172-0.704,2.955c-0.917,1.06-5.566,2.408-5.566,2.408
								c3.66,3.197,8.132,9.445,11.012,13.359c6.548,8.9,11.52,8.205,15.777,5.862c4.258-2.343,6.61-17.265,5.184-21.911
								c0,0-6.636-1.108-8.037-1.544c-2.71-0.844-3.302-4.351-3.41-7.187c-0.128-3.334,1.226-11.983,1.099-15.317
								c-4.841-0.107-12.274,1.291-16.941,0C291.008,108.038,292.438,117.282,292.438,123.368z"/>
							<g>
								<g>
									<path style="fill:#F2887C;" d="M294.202,134.184c1.626,0.012,3.151-0.188,4.751-0.431c2.279-0.345,3.67,0.312,5.744,0.996
										c0.516,0.17,0.783-0.485,0.488-0.838c-2.578-3.084-7.709-1.012-10.983-0.896
										C293.453,133.043,293.447,134.178,294.202,134.184L294.202,134.184z"/>
								</g>
								<g>
									<path style="fill:#F2887C;" d="M308.596,134.066c0.531-1.136,1.424-2.003,2.594-2.471c0.554-0.222,1.135-0.341,1.734-0.34
										c0.542,0.001,0.757,0.135,1.219-0.12c0.197-0.109,0.201-0.362,0.067-0.518c-0.766-0.887-2.683-0.2-3.559,0.237
										c-1.249,0.622-2.16,1.665-2.67,2.953C307.841,134.159,308.435,134.411,308.596,134.066L308.596,134.066z"/>
								</g>
							</g>
						</g>
						<g>
							<path style="fill:#FFA492;" d="M289.099,107.677c2.276,4.727,11.23,9.142,16.257,10.645c4.031,1.205,9.359-7.294,9.911-9.637
								c0.851-3.609,1.521-7.26,2.009-10.936c0.883-6.659,0.975-14.044-3.131-19.36c-3.651-4.728-8.861-5.883-14.814-5.398
								c-2.901,0.236-7.695,2.268-9.892,4.177C281.139,84.378,286.187,101.629,289.099,107.677z"/>
							<path style="fill:#FD515B;" d="M310.419,79.805c1.719,2.765,0,9.013,7.61,11.824c2.097-8.765-3.115-17.612-11.443-21.057
								c-3.494-1.445-20.418-1.319-27.039,13.943c-2.316,5.337-5.485,8.628-2.403,13.562c7.261,11.624,5.942-3.821,14.275-5.508
								C302.344,90.357,296.323,84.332,310.419,79.805z"/>
							<path style="fill:#FFA492;" d="M288.007,97.468l-0.008-0.095c-0.214-2.543-2.172-6.552-4.54-5.601
								c-5.232,2.101-2.387,8.68-0.376,11.56c2.144,3.071,4.469,0.477,4.698-0.174C288.421,101.341,288.501,99.331,288.007,97.468z"
								/>
							<path style="fill:#FFFFFF;" d="M310.873,105.419c-0.475-0.021-3.643,1.234-9.541,0.16c1.857,5.874,4.272,5.768,5.052,5.771
								C309.742,111.364,310.406,108.733,310.873,105.419z"/>
							<path style="fill:#BA3845;" d="M301.971,94.711c-0.088,1.247-0.889,2.207-1.789,2.143c-0.9-0.063-1.559-1.125-1.472-2.372
								c0.088-1.247,0.889-2.207,1.789-2.143C301.4,92.402,302.059,93.464,301.971,94.711z"/>
							<path style="fill:#BA3845;" d="M313.945,94.874c-0.088,1.247-0.889,2.207-1.789,2.143c-0.901-0.063-1.559-1.125-1.472-2.372
								c0.088-1.247,0.889-2.207,1.789-2.143S314.032,93.627,313.945,94.874z"/>
							<g>
								<path style="fill:#F2887C;" d="M285.34,95.095c-0.799-0.666-1.925-1.316-2.879-0.52c-0.911,0.759-0.494,2.22-0.245,3.181
									c0.265,1.025,2.318,6.215,4.166,4.444c0.204-0.195,0.033-0.494-0.214-0.516c-1.457-0.132-2.088-1.867-2.55-3.035
									c-0.243-0.614-0.453-1.239-0.591-1.886c-0.298-0.696-0.108-1.287,0.571-1.774c0.506,0.099,0.948,0.314,1.327,0.645
									C285.235,95.865,285.639,95.344,285.34,95.095L285.34,95.095z"/>
							</g>
							<g>
								<path style="fill:#F2887C;" d="M286.399,97.582c-1.865,0.607-1.1,3.951,0.872,3.605c0.353-0.062,0.355-0.656,0-0.715
									c-0.587-0.098-1.077-0.385-1.197-1.019c-0.095-0.501,0.066-1.138,0.516-1.419C286.819,97.89,286.675,97.492,286.399,97.582
									L286.399,97.582z"/>
							</g>
							<g>
								<path style="fill:#F2887C;" d="M305.972,92.28c-0.189,1.684,0.012,3.242,0.702,4.796c0.262,0.589,0.571,1.162,0.968,1.672
									c0.174,0.223,0.531,0.452,0.617,0.679c0.199,0.524-0.957,1.823-1.592,1.997c-0.642,0.176-0.372,1.139,0.274,0.994
									c1.388-0.313,2.583-1.71,2.259-3.211c-0.166-0.767-0.832-1.359-1.204-2.043c-0.82-1.508-1.143-3.177-1.117-4.884
									C306.888,91.683,306.036,91.714,305.972,92.28L305.972,92.28z"/>
							</g>
							<g>
								<path style="fill:#FD515B;" d="M296.241,88.439c0.859-0.757,1.831-1.337,2.942-1.641c1.157-0.317,2.041-0.055,3.166,0.129
									c0.371,0.06,0.544-0.365,0.249-0.59c-2.021-1.542-5.224,0.27-6.716,1.743C295.647,88.311,295.997,88.653,296.241,88.439
									L296.241,88.439z"/>
							</g>
							<g>
								<path style="fill:#FD515B;" d="M309.383,86.926c0.523-0.615,1.131-0.898,1.935-0.936c0.578-0.027,1.218,0.179,1.746-0.096
									c0.156-0.081,0.119-0.279,0-0.368c-0.549-0.411-1.59-0.297-2.234-0.191c-0.786,0.129-1.411,0.509-1.914,1.123
									C308.651,86.784,309.106,87.252,309.383,86.926L309.383,86.926z"/>
							</g>
							<g>
								<path style="fill:#FF7683;" d="M288.491,89.908c2.698-0.287,4.622-1.344,6.346-3.459c3.917-4.805,7.173-7.975,13.647-8.784
									c0.596-0.075,0.632-0.998,0-0.962c-3.423,0.199-6.661,1.347-9.425,3.392c-3.829,2.835-5.356,8.198-10.568,8.85
									C287.889,89.021,287.871,89.974,288.491,89.908L288.491,89.908z"/>
							</g>
							<g>
								<path style="fill:#FF7683;" d="M287.303,84.129c3.414-0.188,4.433-2.986,6.494-5.308c3.416-3.85,8.113-5.257,13.114-5.081
									c0.527,0.019,0.492-0.732,0-0.797c-3.347-0.44-6.71,0.281-9.654,1.934c-3.566,2.002-6.2,7.871-10.045,8.578
									C286.832,83.524,286.917,84.15,287.303,84.129L287.303,84.129z"/>
							</g>
							<g>
								<path style="fill:#FF7683;" d="M283.037,77.428c2.879-1.119,5.107-2.991,7.637-4.706c4.02-2.725,7.976-3.344,12.723-3.051
									c0.263,0.016,0.316-0.397,0.062-0.459c-8.72-2.122-13.426,4.659-20.624,7.739C282.567,77.066,282.761,77.535,283.037,77.428
									L283.037,77.428z"/>
							</g>
							<g>
								<path style="fill:#FF7683;" d="M275.187,90.251c-3.459,3.813-4.805,10.206-1.371,14.517
									c0.218,0.274,0.697-0.022,0.586-0.341c-1.719-4.923-2.1-9.266,1.466-13.496C276.261,90.464,275.608,89.788,275.187,90.251
									L275.187,90.251z"/>
							</g>
							<g>
								<path style="fill:#FF7683;" d="M277.909,94.125c-1.064,1.598-1.534,3.4-1.297,5.316c0.18,1.45,0.726,3.434,2.118,4.152
									c0.213,0.11,0.503-0.073,0.424-0.326c-0.408-1.298-1.306-2.303-1.558-3.701c-0.319-1.768,0.009-3.551,0.883-5.109
									C278.687,94.084,278.142,93.773,277.909,94.125L277.909,94.125z"/>
							</g>
							<g>
								<path style="fill:#FF7683;" d="M275.019,112.008c0.268,1.539,0.749,3.275,0.628,4.834c-0.125,1.612-1.129,3.064-1.623,4.573
									c-0.743,2.268-0.8,4.618-0.224,6.925c0.092,0.368,0.612,0.205,0.556-0.153c-0.603-3.887,0.553-6.333,1.751-9.865
									c0.727-2.144,0.138-4.381-0.294-6.531C275.709,111.266,274.929,111.492,275.019,112.008L275.019,112.008z"/>
							</g>
							<g>
								<path style="fill:#FF7683;" d="M279.012,113.801c1.881,3.593,0.126,6.15-0.516,9.698c-0.251,1.39-0.2,2.59,0.742,3.653
									c0.168,0.19,0.475-0.012,0.413-0.241c-0.813-3.011,0.601-4.959,0.921-7.835c0.213-1.913-0.346-3.785-1.288-5.435
									C279.184,113.464,278.918,113.621,279.012,113.801L279.012,113.801z"/>
							</g>
							<g>
								<path style="fill:#FF7683;" d="M283.544,114.356c0.729,1.764,1.421,3.517,1.293,5.466c-0.123,1.871-0.803,3.656-0.925,5.533
									c-0.017,0.257,0.338,0.265,0.418,0.057c1.567-4.039,1.64-7.419-0.058-11.362
									C284.096,113.639,283.371,113.938,283.544,114.356L283.544,114.356z"/>
							</g>
							<g>
								<path style="fill:#FF7683;" d="M314.715,77.281c1.967,1.056,3.395,2.484,4.178,4.6c0.537,1.449,0.602,3.047,1.208,4.455
									c0.102,0.237,0.435,0.092,0.448-0.121c0.229-3.893-2.183-7.689-5.564-9.396C314.679,76.663,314.409,77.116,314.715,77.281
									L314.715,77.281z"/>
							</g>
							<g>
								<path style="fill:#FF7683;" d="M313.493,80.244c-0.17,3.039,1.129,5.745,3.717,7.386c0.512,0.325,0.966-0.473,0.471-0.807
									c-2.203-1.483-3.732-3.914-3.941-6.579C313.728,80.086,313.502,80.083,313.493,80.244L313.493,80.244z"/>
							</g>
							<g>
								<path style="fill:#FF7683;" d="M319.62,95.526c1.652,4.486,1.392,8.146,0.142,12.638c-0.939,3.376-0.72,6.823-0.243,10.26
									c0.051,0.366,0.674,0.282,0.648-0.088c-0.202-2.84-0.585-5.743-0.014-8.569c0.369-1.826,1.212-3.5,1.503-5.346
									c0.484-3.067,0.382-6.535-1.371-9.176C320.071,94.922,319.469,95.117,319.62,95.526L319.62,95.526z"/>
							</g>
							<g>
								<path style="fill:#FF7683;" d="M316.87,111.7c-0.628,3.069-0.695,6.943,0.987,9.716c0.165,0.271,0.569,0.091,0.502-0.212
									c-0.369-1.681-0.991-3.199-1.166-4.936c-0.152-1.51-0.125-3.011,0.068-4.515C317.29,111.531,316.915,111.481,316.87,111.7
									L316.87,111.7z"/>
							</g>
							<g>
								<path style="fill:#FF7683;" d="M312.614,118.106c-0.188,0.811-0.274,1.636-0.171,2.466c0.082,0.659,0.166,1.524,0.697,1.973
									c0.218,0.184,0.513,0.056,0.539-0.223c0.055-0.575-0.27-1.153-0.361-1.727c-0.121-0.761-0.117-1.531,0.01-2.291
									C313.407,117.841,312.724,117.633,312.614,118.106L312.614,118.106z"/>
							</g>
						</g>
						<g>
							<g>
								<path style="fill:#FFFFFF;" d="M363.883,127.996l-12.172-1.904c-1.821-0.285-3.528,0.96-3.813,2.781l-4.739,30.289
									c-0.285,1.821,0.96,3.528,2.781,3.813l12.172,1.904c1.821,0.285,3.528-0.96,3.813-2.781l4.739-30.289
									C366.949,129.988,365.704,128.281,363.883,127.996z"/>
								<circle style="fill:#1A2039;" cx="362.656" cy="132.4" r="2.181"/>
							</g>
							<path style="fill:#FFA492;" d="M357.695,149.381c-0.347-0.571,9.01-7.474,6.155-8.573c-0.596-0.229-6.259,6.267-7.006,5.37
								c-0.55-0.66,7.886-8.887,6.017-9.766c-1.208-0.568-7.041,7.16-8.331,6.815c-1.917-0.513,5.803-8.463,3.824-8.903
								c-2.2-0.489-5.795,6.636-7.254,8.353c-0.982,1.156-3.655,2.943-4.726,1.869c-0.51-0.512,0.281-4.001-0.22-4.521
								c-0.86-0.894-2.063,2.637-2.623,3.743c-0.56,1.107-0.429,2.416-0.472,3.656c-0.091,2.627-1.027,4.582-2.173,6.453
								c-9.824,10.493-20.797,17.122-27.706,22.215c-5.719-8.904-17.092-24.38-18.465-26.16c-4.86-6.299-8.657-16.384-16.304-16.227
								c-15.459,0.318-10.195,24.056-2.206,32.139c9.722,9.837,20.824,23.977,32.629,31.184c8.9,5.434,32.871-25.335,39.394-38.619
								c1.943-1.427,3.84-2.077,6.685-2.83c0.611-0.162,3.342-2.743,3.851-3.118c0.686-0.505,4.724-4.269,4.166-5.386
								C362.421,146.058,358.763,151.139,357.695,149.381z"/>
							<g>
								<path style="fill:#F99585;" d="M310.511,178.33c-2.099,2.054-3.543,5.009-3.068,7.991c0.088,0.553,0.831,0.334,0.891-0.12
									c0.355-2.715,0.982-5.091,2.887-7.161C311.657,178.565,310.975,177.876,310.511,178.33L310.511,178.33z"/>
							</g>
						</g>
					</g>
				</g>
			</g>
			<polygon style="fill:#BF3A7C;" points="284.191,222.667 289.283,261.062 309.254,226.267 			"/>
		</g>
	</g>
</g>
</svg>
